<svg xmlns="http://www.w3.org/2000/svg" xmlns:xlink="http://www.w3.org/1999/xlink" width="475.631" height="173.333" viewBox="0 0 475.631 173.333"><defs><clipPath id="a"><path d="M26.212,131.994c18.987-.508,33.258.126,38.3,2.895,5.291,2.908,3.426,9.086.2,10.318-2.622,1-5.5,1.594-19.243,1.676L43.6,162.839c28.194,2.16,27.787,7.288,26.862,9.669-1.955,5.033-15.973,6.187-46.233-4.529l-5.612,23.509c51.652,9.822,64.835,2.887,71.495-3.962,7.745-7.966,6.857-27.5-12.418-33.237,14.316-2.753,15.241-12.968,14.714-17.894-1.024-9.568-9.472-16.573-25.023-21.368-9.2-2.834-26.188-6-36.936-7.328Z" transform="translate(-18.618 -107.7)" fill="none"/></clipPath><clipPath id="b"><rect width="38.325" height="35.574" fill="none"/></clipPath><clipPath id="c"><rect width="24.211" height="16.699" fill="none"/></clipPath><clipPath id="d"><rect width="26.36" height="14.691" fill="none"/></clipPath><clipPath id="e"><path d="M177.339,158.913,197.2,160.67s5.081-13.81,14.812-22.76c0,0-14.417-1.8-22.495-3.005-9.451,8.7-12.182,24.009-12.182,24.009" transform="translate(-177.339 -134.904)" fill="none"/></clipPath><clipPath id="f"><rect width="21.077" height="47.116" fill="none"/></clipPath><clipPath id="g"><path d="M341.775,148.829c-11.2,2.9-17.029,8.844-17.324,17.659-.141,4.169,1.265,11.74,12.263,15.608,4.238,1.49,9.743,2.034,18.513,3.183,3.189.418,4.639,1.6,4.91,2.789a1.908,1.908,0,0,1-1,2.124c-2.936,1.715-14.148,2.243-29.841-4.647l-5.951,18.2c4.635,1.49,20.077,4.886,31.078,5.257h.017c22,.375,27.62-10.254,28.817-13.521a17.536,17.536,0,0,0,.8-8.12c-.6-4.031-3.422-13.415-24.678-14.627-6.907-.394-11-1.313-12.186-2.991a2.345,2.345,0,0,1-.245-2.056c.7-2.779,10.557-4.89,31.811-.062l-.327-19.525a136.873,136.873,0,0,0-17.134-1c-7.6,0-14.984.553-19.522,1.729" transform="translate(-323.346 -147.1)" fill="none"/></clipPath><clipPath id="h"><rect width="21.823" height="19.073" fill="none"/></clipPath><clipPath id="i"><path d="M452.33,138.4c1.271,7.832,3.54,22.079,1.547,30.471-1.742,7.335-4.817,8.311-8.014,8.4-3.2-.092-6.272-1.069-8.014-8.4-1.994-8.392.3-21.3,1.567-29.131,0,0-12.833,1.436-24.548,2.173-.279,6.984-.178,10.4-.178,17.27,0,38.754,16.482,46.391,31.173,46.336,14.691.055,31.173-7.582,31.173-46.336,0-6.872-.129-21.476-.413-23.932C465.6,136.836,452.33,138.4,452.33,138.4" transform="translate(-414.673 -135.255)" fill="none"/></clipPath><clipPath id="j"><rect width="34.935" height="43.825" fill="none"/></clipPath><clipPath id="k"><path d="M575.341,121.454l1.477,37.784c-12.218-4.4-22.084-23.483-22.687-34.182v49.326c3.4,5.509,21.1,23.827,48.939,23.827v-81.99s-17.272,3.507-27.73,5.235" transform="translate(-554.132 -116.219)" fill="none"/></clipPath><clipPath id="l"><rect width="30.074" height="47.95" fill="none"/></clipPath><clipPath id="m"><path d="M514.907,132.216v70.121h26.5V128.152s-15.248,2.429-26.5,4.064" transform="translate(-514.907 -128.152)" fill="none"/></clipPath><clipPath id="n"><path d="M636.562,109.647l7.992,62.811,9.07-.255,15.968-69.654Z" transform="translate(-636.562 -102.55)" fill="none"/></clipPath><clipPath id="o"><rect width="19.073" height="35.574" fill="none"/></clipPath></defs><g transform="translate(-1014 120)"><path d="M471.789,56.914a11.343,11.343,0,0,0-8.627-1.928c-41.106,9.241-69.845,15.221-103.94,20.351a8.656,8.656,0,0,1-9.952-8.554V53.755c.015-9.722.02-13-1.517-16.355a11.522,11.522,0,0,0-11.291-6.818,12.5,12.5,0,0,0-5.975-8.032A13.753,13.753,0,0,0,320,21.147a9.9,9.9,0,0,0-4.891-4.879c1.218-6.034-.949-11.248-6.023-14.4C303.181-1.792,295.94.351,291.993,4.6a12.886,12.886,0,0,0-10.033-.249c-4.432,1.8-6.88,6.439-7.9,8.9H201.578c-1.024-2.462-3.472-7.1-7.9-8.9a12.877,12.877,0,0,0-10.032.25c-3.947-4.255-11.187-6.4-17.089-2.734-5.075,3.149-7.242,8.363-6.024,14.4a9.894,9.894,0,0,0-4.891,4.879,13.744,13.744,0,0,0-10.492,1.4,12.5,12.5,0,0,0-5.975,8.032,11.51,11.51,0,0,0-11.29,6.818c-1.537,3.357-1.532,6.634-1.517,16.361V66.784a8.656,8.656,0,0,1-9.953,8.554C82.309,70.206,53.57,64.226,12.479,54.988a11.345,11.345,0,0,0-8.637,1.926A11.666,11.666,0,0,0,0,64.863v98.324a10.158,10.158,0,0,0,10.147,10.146H465.484a10.158,10.158,0,0,0,10.147-10.146V64.863a11.666,11.666,0,0,0-3.842-7.949" transform="translate(1014 -120)" fill="#fff"/><g transform="translate(1026.577 -47.244)"><path d="M77.694,154.29c14.316-2.753,15.241-12.968,14.714-17.894-1.024-9.567-9.471-16.574-25.023-21.367-9.2-2.835-26.188-6.006-36.936-7.328l-4.237,24.294c18.987-.507,33.258.126,38.3,2.895,5.291,2.908,3.425,9.087.2,10.318-2.623,1-5.5,1.594-19.244,1.676L43.6,162.838c28.194,2.16,27.787,7.288,26.862,9.67-1.955,5.032-15.972,6.188-46.233-4.529l-5.612,23.51c51.651,9.822,64.834,2.886,71.494-3.963,7.745-7.965,6.857-27.5-12.418-33.236" transform="translate(-18.618 -107.7)" fill="#f85464"/><g transform="translate(0 0)"><g transform="translate(0)" clip-path="url(#a)"><path d="M29.86,128.425l28.267-20.809L29.86,96.7Z" transform="translate(-22.265 -104.131)" fill="#ffa800"/><g transform="translate(37.253 53.969)" opacity="0.5"><g transform="translate(0)"><g clip-path="url(#b)"><path d="M125.189,201.088A1.286,1.286,0,1,1,123.9,199.8a1.286,1.286,0,0,1,1.286,1.286" transform="translate(-89.615 -191.552)" fill="#fff"/><path d="M129.261,194.982a1.286,1.286,0,1,1-1.286-1.286,1.286,1.286,0,0,1,1.286,1.286" transform="translate(-90.936 -189.571)" fill="#fff"/><path d="M125.189,188.875a1.286,1.286,0,1,1-1.286-1.286,1.286,1.286,0,0,1,1.286,1.286" transform="translate(-89.615 -187.589)" fill="#fff"/><path d="M129.261,207.2a1.286,1.286,0,1,1-1.286-1.286,1.286,1.286,0,0,1,1.286,1.286" transform="translate(-90.936 -193.533)" fill="#fff"/><path d="M129.261,219.408a1.286,1.286,0,1,1-1.286-1.286,1.286,1.286,0,0,1,1.286,1.286" transform="translate(-90.936 -197.496)" fill="#fff"/><path d="M125.189,213.3a1.286,1.286,0,1,1-1.286-1.286,1.286,1.286,0,0,1,1.286,1.286" transform="translate(-89.615 -195.515)" fill="#fff"/><path d="M121.118,194.982a1.286,1.286,0,1,1-1.286-1.286,1.286,1.286,0,0,1,1.286,1.286" transform="translate(-88.294 -189.571)" fill="#fff"/><path d="M121.118,207.2a1.286,1.286,0,1,1-1.286-1.286,1.286,1.286,0,0,1,1.286,1.286" transform="translate(-88.294 -193.533)" fill="#fff"/><path d="M117.047,201.088a1.286,1.286,0,1,1-1.286-1.286,1.286,1.286,0,0,1,1.286,1.286" transform="translate(-86.973 -191.552)" fill="#fff"/><path d="M125.189,225.515a1.286,1.286,0,1,1-1.286-1.286,1.286,1.286,0,0,1,1.286,1.286" transform="translate(-89.615 -199.477)" fill="#fff"/><path d="M117.047,225.515a1.286,1.286,0,1,1-1.286-1.286,1.286,1.286,0,0,1,1.286,1.286" transform="translate(-86.973 -199.477)" fill="#fff"/><path d="M121.118,219.408a1.286,1.286,0,1,1-1.286-1.286,1.286,1.286,0,0,1,1.286,1.286" transform="translate(-88.294 -197.496)" fill="#fff"/><path d="M117.047,213.3a1.286,1.286,0,1,1-1.286-1.286,1.286,1.286,0,0,1,1.286,1.286" transform="translate(-86.973 -195.515)" fill="#fff"/><path d="M112.976,207.2a1.286,1.286,0,1,1-1.286-1.286,1.286,1.286,0,0,1,1.286,1.286" transform="translate(-85.652 -193.533)" fill="#fff"/><path d="M108.9,225.515a1.286,1.286,0,1,1-1.286-1.286,1.286,1.286,0,0,1,1.286,1.286" transform="translate(-84.331 -199.477)" fill="#fff"/><path d="M112.976,219.408a1.286,1.286,0,1,1-1.286-1.286,1.286,1.286,0,0,1,1.286,1.286" transform="translate(-85.652 -197.496)" fill="#fff"/><path d="M108.9,213.3a1.286,1.286,0,1,1-1.286-1.286A1.286,1.286,0,0,1,108.9,213.3" transform="translate(-84.331 -195.515)" fill="#fff"/><path d="M112.976,231.622a1.286,1.286,0,1,1-1.286-1.286,1.286,1.286,0,0,1,1.286,1.286" transform="translate(-85.652 -201.459)" fill="#fff"/><path d="M100.763,225.515a1.286,1.286,0,1,1-1.286-1.286,1.286,1.286,0,0,1,1.286,1.286" transform="translate(-81.689 -199.477)" fill="#fff"/><path d="M104.834,219.408a1.286,1.286,0,1,1-1.286-1.286,1.286,1.286,0,0,1,1.286,1.286" transform="translate(-83.01 -197.496)" fill="#fff"/><path d="M100.763,237.728a1.286,1.286,0,1,1-1.286-1.286,1.286,1.286,0,0,1,1.286,1.286" transform="translate(-81.689 -203.44)" fill="#fff"/><path d="M104.834,231.622a1.286,1.286,0,1,1-1.286-1.286,1.286,1.286,0,0,1,1.286,1.286" transform="translate(-83.01 -201.459)" fill="#fff"/><path d="M96.692,219.408a1.286,1.286,0,1,1-1.286-1.286,1.286,1.286,0,0,1,1.286,1.286" transform="translate(-80.369 -197.496)" fill="#fff"/><path d="M100.763,213.3a1.286,1.286,0,1,1-1.286-1.286,1.286,1.286,0,0,1,1.286,1.286" transform="translate(-81.689 -195.515)" fill="#fff"/><path d="M92.621,237.728a1.286,1.286,0,1,1-1.286-1.286,1.286,1.286,0,0,1,1.286,1.286" transform="translate(-79.048 -203.44)" fill="#fff"/><path d="M96.692,231.622a1.286,1.286,0,1,1-1.286-1.286,1.286,1.286,0,0,1,1.286,1.286" transform="translate(-80.369 -201.459)" fill="#fff"/><path d="M92.621,225.515a1.286,1.286,0,1,1-1.286-1.286,1.286,1.286,0,0,1,1.286,1.286" transform="translate(-79.048 -199.477)" fill="#fff"/><path d="M84.478,237.728a1.286,1.286,0,1,1-1.286-1.286,1.286,1.286,0,0,1,1.286,1.286" transform="translate(-76.406 -203.44)" fill="#fff"/><path d="M88.55,231.622a1.286,1.286,0,1,1-1.286-1.286,1.286,1.286,0,0,1,1.286,1.286" transform="translate(-77.727 -201.459)" fill="#fff"/><path d="M76.336,237.728a1.286,1.286,0,1,1-1.286-1.286,1.286,1.286,0,0,1,1.286,1.286" transform="translate(-73.764 -203.44)" fill="#fff"/><path d="M80.407,231.622a1.286,1.286,0,1,1-1.286-1.286,1.286,1.286,0,0,1,1.286,1.286" transform="translate(-75.085 -201.459)" fill="#fff"/></g></g></g></g></g></g><g transform="translate(1104.595 -35.139)"><path d="M134.107,125.62l7.282,58.89,7.052-.2,12.576-54.293Z" transform="translate(-134.107 -125.619)" fill="#83cc1d"/><path d="M154.572,224.4l-3.1,2.024-.163,3.7-3.6-1.053-2.44,2.845-2.439-2.845-3.6,1.054-.163-3.7-3.1-2.024,3.1-2.024.163-3.7,3.6,1.053,2.44-2.845,2.439,2.845,3.6-1.054.163,3.7Z" transform="translate(-134.71 -155.231)" fill="#ffa800"/><path d="M161.017,130.02l-24.728,13.249-2.182-17.65Z" transform="translate(-134.107 -125.619)" fill="#ffa800"/><g transform="translate(0.385 0.479)" opacity="0.5"><g transform="translate(0 0)"><g clip-path="url(#c)"><path d="M163.927,135.749a1.269,1.269,0,0,0-1.236,1.621l2.2-1.179a1.278,1.278,0,0,0-.963-.443" transform="translate(-143.75 -129.385)" fill="#fff"/><path d="M168,132.645a1.285,1.285,0,0,0,1.284-1.267l-2.5-.409a1.267,1.267,0,0,0-.068.39A1.287,1.287,0,0,0,168,132.645" transform="translate(-145.071 -127.834)" fill="#fff"/><path d="M158.571,130.981a1.286,1.286,0,1,0,2.146-.95l-1.378-.225a1.284,1.284,0,0,0-.768,1.175" transform="translate(-142.43 -127.457)" fill="#fff"/><path d="M155.785,135.749a1.286,1.286,0,1,0,1.286,1.286,1.286,1.286,0,0,0-1.286-1.286" transform="translate(-141.108 -129.385)" fill="#fff"/><path d="M143.572,129.642a1.286,1.286,0,1,0,1.286,1.286,1.286,1.286,0,0,0-1.286-1.286" transform="translate(-137.146 -127.404)" fill="#fff"/><path d="M152.83,142.513a1.28,1.28,0,0,0-2.257,1.209Z" transform="translate(-139.788 -131.367)" fill="#fff"/><path d="M147.643,135.749a1.286,1.286,0,1,0,1.286,1.286,1.286,1.286,0,0,0-1.286-1.286" transform="translate(-138.467 -129.385)" fill="#fff"/><path d="M151.714,132.215a1.286,1.286,0,1,0-1.286-1.286,1.286,1.286,0,0,0,1.286,1.286" transform="translate(-139.788 -127.404)" fill="#fff"/><path d="M135.6,129.642a1.28,1.28,0,0,0-.925.4l.244,1.976a1.271,1.271,0,0,0,.682.2,1.286,1.286,0,1,0,0-2.572" transform="translate(-134.677 -127.404)" fill="#fff"/><path d="M139.576,127.014a1.279,1.279,0,0,0,.884-.355l-2.014-.33a1.28,1.28,0,0,0,1.13.685" transform="translate(-135.9 -126.329)" fill="#fff"/><path d="M140.787,137.035a1.286,1.286,0,1,0-1.287,1.286,1.286,1.286,0,0,0,1.287-1.286" transform="translate(-135.825 -129.385)" fill="#fff"/><path d="M139.5,147.962a1.279,1.279,0,0,0-1,2.085l2.219-1.189a1.282,1.282,0,0,0-1.219-.9" transform="translate(-135.825 -133.348)" fill="#fff"/><path d="M143.572,144.428a1.286,1.286,0,1,0-1.286-1.286,1.286,1.286,0,0,0,1.286,1.286" transform="translate(-137.146 -131.367)" fill="#fff"/><path d="M137.355,143.144a1.284,1.284,0,0,0-1.24-1.282l.311,2.511a1.281,1.281,0,0,0,.93-1.229" transform="translate(-135.144 -131.369)" fill="#fff"/></g></g></g></g><g transform="translate(1130.217 -28.867)"><path d="M250.9,189.743l-11.759,2.391c7.609,9.637,8.092,12.1,18.94,21.6l12.862-10.705s-14.849-6.092-20.043-13.286" transform="translate(-193.807 -152.697)" fill="#44bed3"/><path d="M172.906,173.045l2.716,14.517,70.3.959v-7.9Z" transform="translate(-172.318 -147.279)" fill="#f85464"/><g transform="translate(0.588 25.766)" opacity="0.5"><g transform="translate(0)"><g clip-path="url(#d)"><path d="M209.405,178.772a1.286,1.286,0,1,0,1.287,1.286,1.287,1.287,0,0,0-1.287-1.286" transform="translate(-184.331 -174.903)" fill="#fff"/><path d="M201.263,178.772a1.286,1.286,0,1,0,1.286,1.286,1.286,1.286,0,0,0-1.286-1.286" transform="translate(-181.689 -174.903)" fill="#fff"/><path d="M201.263,190.985a1.286,1.286,0,1,0,1.286,1.286,1.286,1.286,0,0,0-1.286-1.286" transform="translate(-181.689 -178.866)" fill="#fff"/><path d="M205.334,184.878a1.286,1.286,0,1,0,1.286,1.286,1.286,1.286,0,0,0-1.286-1.286" transform="translate(-183.01 -176.884)" fill="#fff"/><path d="M197.254,176.119a1.281,1.281,0,0,0,1.023-.515l-2.181-.22a1.282,1.282,0,0,0,1.157.735" transform="translate(-180.431 -173.804)" fill="#fff"/><path d="M195.906,186.164a1.286,1.286,0,1,0,1.287-1.286,1.286,1.286,0,0,0-1.287,1.286" transform="translate(-180.369 -176.884)" fill="#fff"/><path d="M194.408,192.271a1.286,1.286,0,1,0-1.558,1.256l.505.007a1.285,1.285,0,0,0,1.052-1.263" transform="translate(-179.048 -178.866)" fill="#fff"/><path d="M193.121,178.772a1.286,1.286,0,1,0,1.286,1.286,1.286,1.286,0,0,0-1.286-1.286" transform="translate(-179.048 -174.903)" fill="#fff"/><path d="M189.05,175.846a1.286,1.286,0,0,0,1.262-1.046l-2.546-.257c0,.005,0,.011,0,.016a1.286,1.286,0,0,0,1.286,1.286" transform="translate(-177.727 -173.531)" fill="#fff"/><path d="M189.05,184.878a1.286,1.286,0,1,0,1.286,1.286,1.286,1.286,0,0,0-1.286-1.286" transform="translate(-177.727 -176.884)" fill="#fff"/><path d="M186.265,192.271a1.286,1.286,0,1,0-1.794,1.182l.979.013a1.286,1.286,0,0,0,.815-1.194" transform="translate(-176.406 -178.866)" fill="#fff"/><path d="M184.979,178.772a1.286,1.286,0,1,0,1.286,1.286,1.286,1.286,0,0,0-1.286-1.286" transform="translate(-176.406 -174.903)" fill="#fff"/><path d="M180.908,175.586a1.271,1.271,0,0,0,1.242-1.6l-2.4-.242a1.271,1.271,0,0,0-.132.558,1.286,1.286,0,0,0,1.286,1.286" transform="translate(-175.085 -173.271)" fill="#fff"/><path d="M180.908,184.878a1.286,1.286,0,1,0,1.286,1.286,1.286,1.286,0,0,0-1.286-1.286" transform="translate(-175.085 -176.884)" fill="#fff"/><path d="M178.376,192.271a1.286,1.286,0,0,0-1.286-1.286,1.271,1.271,0,0,0-.757.252l.4,2.146.969.012a1.281,1.281,0,0,0,.674-1.124" transform="translate(-174.018 -178.866)" fill="#fff"/><path d="M173.337,175.349a1.281,1.281,0,0,0,.8-2.18l-1.236-.124Z" transform="translate(-172.906 -173.045)" fill="#fff"/><path d="M178.123,180.057a1.286,1.286,0,1,0-1.286,1.286,1.286,1.286,0,0,0,1.286-1.286" transform="translate(-173.764 -174.903)" fill="#fff"/></g></g></g><path d="M236.176,196.791c-8.034,3.059-19.856,2.491-24.536,1.72l1.516,9.141c11.369.536,21.34-2.625,24.4-4.417Z" transform="translate(-184.886 -154.984)" fill="#44bed3"/><path d="M238.9,217.124c-5.933,2.808-12.967,4.68-26.821,3.963l2.121,11.66c14.708-1.823,22.733-6.5,26.877-8.983Z" transform="translate(-185.028 -161.581)" fill="#44bed3"/><path d="M234.779,206.275a64.813,64.813,0,0,1-13.233,6.4l2.525,7.54c5.58-2.082,10.96-5.32,13.283-7.5Z" transform="translate(-188.1 -158.061)" fill="#83cc1d"/><path d="M246.028,158.816l-58.872-8.8.509,14.43,58.809,5.239Z" transform="translate(-176.942 -139.806)" fill="#44bed3"/><path d="M264.53,149.728,248.366,148.1c7.1,8.767,6.647,19.949,6.647,19.949l15.136,1.348s1.519-11.527-5.619-19.674" transform="translate(-196.802 -139.187)" fill="#44bed3"/><path d="M189.521,134.9c-9.452,8.7-12.182,24.009-12.182,24.009L197.2,160.67s5.081-13.811,14.812-22.761c0,0-14.417-1.8-22.495-3" transform="translate(-173.757 -134.904)" fill="#44bed3"/><path d="M203.986,172.878c-4.313,8.541-16.461,18.179-31.95,22.509l16.255,11.455c10.563-6.789,27.5-22.946,30.979-32.174Z" transform="translate(-172.036 -147.225)" fill="#44bed3"/><g transform="translate(3.582)"><g transform="translate(0)" clip-path="url(#e)"><path d="M212.865,137.91s-14.417-1.8-22.495-3c-5.114,4.709-8.616,11.516-10.414,16.633Z" transform="translate(-178.188 -134.904)" fill="#ffa800"/></g></g></g><g transform="translate(1209.125 -21.881)"><path d="M288.843,145.246l5.9,48.679,5.707-.16,10.722-47.325Z" transform="translate(-288.843 -145.246)" fill="#44bed3"/><g transform="translate(0.439 0.142)" opacity="0.5"><g transform="translate(0)"><g clip-path="url(#f)"><path d="M314.3,150.328a1.286,1.286,0,1,0,1.286,1.286,1.286,1.286,0,0,0-1.286-1.286" transform="translate(-297.124 -147.037)" fill="#fff"/><path d="M318.406,147.617a1.283,1.283,0,0,0,1.154-.729l-2.361-.126a1.282,1.282,0,0,0,1.207.855" transform="translate(-298.483 -145.88)" fill="#fff"/><path d="M314.3,162.541a1.286,1.286,0,1,0,1.286,1.286,1.286,1.286,0,0,0-1.286-1.286" transform="translate(-297.124 -150.999)" fill="#fff"/><path d="M317.081,157.72A1.283,1.283,0,0,0,318.31,159l.559-2.464a1.286,1.286,0,0,0-1.788,1.184" transform="translate(-298.445 -149.018)" fill="#fff"/><path d="M314.747,174.84a1.27,1.27,0,0,0-.451-.086,1.283,1.283,0,0,0-.109,2.561Z" transform="translate(-297.124 -154.962)" fill="#fff"/><path d="M306.154,150.328a1.286,1.286,0,1,0,1.286,1.286,1.286,1.286,0,0,0-1.286-1.286" transform="translate(-294.482 -147.037)" fill="#fff"/><path d="M310.232,147.474a1.286,1.286,0,0,0,1.257-1.018l-2.53-.135a1.282,1.282,0,0,0,1.273,1.153" transform="translate(-295.81 -145.737)" fill="#fff"/><path d="M306.154,162.541a1.286,1.286,0,1,0,1.286,1.286,1.286,1.286,0,0,0-1.286-1.286" transform="translate(-294.482 -150.999)" fill="#fff"/><path d="M311.511,157.72a1.286,1.286,0,1,0-1.286,1.286,1.286,1.286,0,0,0,1.286-1.286" transform="translate(-295.803 -149.018)" fill="#fff"/><path d="M311.511,169.933a1.286,1.286,0,1,0-1.286,1.286,1.286,1.286,0,0,0,1.286-1.286" transform="translate(-295.803 -152.981)" fill="#fff"/><path d="M310.225,180.861a1.286,1.286,0,1,0,1.286,1.286,1.286,1.286,0,0,0-1.286-1.286" transform="translate(-295.803 -156.943)" fill="#fff"/><path d="M310.627,193.144a1.281,1.281,0,1,0-.563,2.485Z" transform="translate(-295.803 -160.906)" fill="#fff"/><path d="M298.011,150.328a1.286,1.286,0,1,0,1.286,1.286,1.286,1.286,0,0,0-1.286-1.286" transform="translate(-291.84 -147.037)" fill="#fff"/><path d="M302.083,147.333a1.286,1.286,0,0,0,1.286-1.286c0-.008,0-.016,0-.024l-2.554-.136a1.267,1.267,0,0,0-.016.161,1.286,1.286,0,0,0,1.286,1.286" transform="translate(-293.161 -145.596)" fill="#fff"/><path d="M298.011,162.541a1.286,1.286,0,1,0,1.286,1.286,1.286,1.286,0,0,0-1.286-1.286" transform="translate(-291.84 -150.999)" fill="#fff"/><path d="M303.369,157.72a1.286,1.286,0,1,0-1.286,1.286,1.286,1.286,0,0,0,1.286-1.286" transform="translate(-293.161 -149.018)" fill="#fff"/><path d="M303.369,169.933a1.286,1.286,0,1,0-1.286,1.286,1.286,1.286,0,0,0,1.286-1.286" transform="translate(-293.161 -152.981)" fill="#fff"/><path d="M300.8,182.147a1.286,1.286,0,1,0,1.286-1.286,1.286,1.286,0,0,0-1.286,1.286" transform="translate(-293.161 -156.943)" fill="#fff"/><path d="M306.154,177.327a1.286,1.286,0,1,0-1.286-1.286,1.286,1.286,0,0,0,1.286,1.286" transform="translate(-294.482 -154.962)" fill="#fff"/><path d="M300.8,194.36a1.286,1.286,0,1,0,1.286-1.286,1.286,1.286,0,0,0-1.286,1.286" transform="translate(-293.161 -160.906)" fill="#fff"/><path d="M306.154,189.54a1.286,1.286,0,1,0-1.286-1.286,1.286,1.286,0,0,0,1.286,1.286" transform="translate(-294.482 -158.925)" fill="#fff"/><path d="M306.154,211.394a1.284,1.284,0,0,0-.214,2.55l.565-2.5a1.28,1.28,0,0,0-.351-.055" transform="translate(-294.482 -166.85)" fill="#fff"/><path d="M300.8,206.573a1.286,1.286,0,1,0,1.286-1.286,1.286,1.286,0,0,0-1.286,1.286" transform="translate(-293.161 -164.869)" fill="#fff"/><path d="M306.154,201.753a1.286,1.286,0,1,0-1.286-1.286,1.286,1.286,0,0,0,1.286,1.286" transform="translate(-294.482 -162.888)" fill="#fff"/><path d="M299.38,212.68a1.282,1.282,0,0,0-2.4-.628l.183,1.51a1.283,1.283,0,0,0,2.219-.882" transform="translate(-291.922 -166.85)" fill="#fff"/><path d="M290.165,150.328a1.278,1.278,0,0,0-.671.193l.28,2.312a1.265,1.265,0,0,0,.39.067,1.286,1.286,0,1,0,0-2.572" transform="translate(-289.494 -147.037)" fill="#fff"/><path d="M293.94,147.193a1.271,1.271,0,0,0,1.241-1.607l-2.441-.13a1.277,1.277,0,0,0,1.2,1.737" transform="translate(-290.519 -145.456)" fill="#fff"/><path d="M290.947,162.6l.288,2.376a1.278,1.278,0,0,0-.288-2.376" transform="translate(-289.965 -151.02)" fill="#fff"/><path d="M295.227,157.72a1.286,1.286,0,1,0-1.286,1.286,1.286,1.286,0,0,0,1.286-1.286" transform="translate(-290.52 -149.018)" fill="#fff"/><path d="M295.227,169.933a1.286,1.286,0,1,0-1.286,1.286,1.286,1.286,0,0,0,1.286-1.286" transform="translate(-290.52 -152.981)" fill="#fff"/><path d="M295.412,182.147a1.285,1.285,0,0,0-2.186-.917l.244,2.019a1.279,1.279,0,0,0,1.942-1.1" transform="translate(-290.705 -156.943)" fill="#fff"/><path d="M298.011,177.327a1.286,1.286,0,1,0-1.286-1.286,1.286,1.286,0,0,0,1.286,1.286" transform="translate(-291.84 -154.962)" fill="#fff"/><path d="M295.871,194.363a1.283,1.283,0,0,0-1.23-1.28l.3,2.509a1.283,1.283,0,0,0,.926-1.229" transform="translate(-291.164 -160.909)" fill="#fff"/><path d="M298.011,189.54a1.286,1.286,0,1,0-1.286-1.286,1.286,1.286,0,0,0,1.286,1.286" transform="translate(-291.84 -158.925)" fill="#fff"/><path d="M298.011,201.753a1.286,1.286,0,1,0-1.286-1.286,1.286,1.286,0,0,0,1.286,1.286" transform="translate(-291.84 -162.888)" fill="#fff"/></g></g></g><path d="M305.944,226.766l-2.7,1.765-.143,3.226-3.143-.919-2.128,2.482-2.128-2.482-3.143.919-.143-3.226-2.7-1.765,2.7-1.765.142-3.226,3.143.919,2.129-2.482,2.128,2.482,3.143-.919.143,3.226Z" transform="translate(-289.126 -169.569)" fill="#ffa800"/><path d="M311.171,146.44l-20.619,12.91-1.709-14.1Z" transform="translate(-288.843 -145.246)" fill="#ffa800"/></g><g transform="translate(1232.434 -20.628)"><path d="M384.057,187.364c-.6-4.03-3.422-13.415-24.678-14.627-6.907-.395-11-1.313-12.186-2.992a2.342,2.342,0,0,1-.245-2.055c.7-2.779,10.557-4.89,31.81-.063l-.326-19.525c-11.265-1.488-28.53-1.38-36.656.726-11.2,2.9-17.03,8.844-17.326,17.659-.14,4.169,1.265,11.74,12.264,15.608,4.238,1.49,9.743,2.034,18.513,3.183,3.189.418,4.639,1.6,4.91,2.789a1.908,1.908,0,0,1-1,2.124c-2.936,1.715-14.148,2.243-29.841-4.646l-5.951,18.2c4.635,1.49,20.076,4.886,31.078,5.257h.017c22,.376,27.62-10.253,28.817-13.521a17.528,17.528,0,0,0,.8-8.12" transform="translate(-323.346 -147.1)" fill="#83cc1d"/><g transform="translate(0 0)"><g transform="translate(0)" clip-path="url(#g)"><g transform="translate(33.724 0.18)" opacity="0.5"><g clip-path="url(#h)"><path d="M394.908,153.473a1.286,1.286,0,1,0,1.286,1.286,1.286,1.286,0,0,0-1.286-1.286" transform="translate(-379.872 -149.347)" fill="#fff"/><path d="M400.266,148.652a1.286,1.286,0,1,0-1.286,1.286,1.286,1.286,0,0,0,1.286-1.286" transform="translate(-381.193 -147.366)" fill="#fff"/><path d="M397.694,160.865a1.286,1.286,0,1,0,1.286-1.286,1.286,1.286,0,0,0-1.286,1.286" transform="translate(-381.193 -151.329)" fill="#fff"/><path d="M403.05,156.045a1.286,1.286,0,1,0-1.286-1.286,1.286,1.286,0,0,0,1.286,1.286" transform="translate(-382.513 -149.347)" fill="#fff"/><path d="M398.979,171.793a1.286,1.286,0,1,0,1.286,1.286,1.286,1.286,0,0,0-1.286-1.286" transform="translate(-381.192 -155.292)" fill="#fff"/><path d="M403.05,168.259a1.286,1.286,0,1,0-1.286-1.286,1.286,1.286,0,0,0,1.286,1.286" transform="translate(-382.513 -153.31)" fill="#fff"/><path d="M389.551,148.652a1.286,1.286,0,1,0,1.286-1.286,1.286,1.286,0,0,0-1.286,1.286" transform="translate(-378.551 -147.366)" fill="#fff"/><path d="M389.551,160.865a1.286,1.286,0,1,0,1.286-1.286,1.286,1.286,0,0,0-1.286,1.286" transform="translate(-378.551 -151.329)" fill="#fff"/><path d="M390.837,171.793a1.286,1.286,0,1,0,1.286,1.286,1.286,1.286,0,0,0-1.286-1.286" transform="translate(-378.551 -155.292)" fill="#fff"/><path d="M394.908,168.259a1.286,1.286,0,1,0-1.286-1.286,1.286,1.286,0,0,0,1.286,1.286" transform="translate(-379.872 -153.31)" fill="#fff"/><path d="M386.766,153.473a1.286,1.286,0,1,0,1.286,1.286,1.286,1.286,0,0,0-1.286-1.286" transform="translate(-377.23 -149.347)" fill="#fff"/><path d="M382.7,159.579a1.286,1.286,0,1,0,1.286,1.286,1.286,1.286,0,0,0-1.286-1.286" transform="translate(-375.909 -151.329)" fill="#fff"/><path d="M381.409,173.078a1.286,1.286,0,1,0,1.286-1.286,1.286,1.286,0,0,0-1.286,1.286" transform="translate(-375.909 -155.291)" fill="#fff"/><path d="M386.766,168.259a1.286,1.286,0,1,0-1.286-1.286,1.286,1.286,0,0,0,1.286,1.286" transform="translate(-377.23 -153.31)" fill="#fff"/><path d="M374.553,174.365a1.286,1.286,0,1,0-1.286-1.286,1.286,1.286,0,0,0,1.286,1.286" transform="translate(-373.267 -155.292)" fill="#fff"/><path d="M378.624,168.259a1.286,1.286,0,1,0-1.286-1.286,1.286,1.286,0,0,0,1.286,1.286" transform="translate(-374.588 -153.31)" fill="#fff"/></g></g><path d="M323.346,220.267l22.471-13.707-22.01-8.544Z" transform="translate(-323.346 -163.62)" fill="#ffa800"/></g></g></g><g transform="translate(1294.129 -28.63)"><path d="M476.623,135.255C465.6,136.836,452.33,138.4,452.33,138.4c1.271,7.832,3.54,22.078,1.547,30.471-1.742,7.334-4.817,8.311-8.014,8.4-3.2-.093-6.272-1.069-8.014-8.4-1.994-8.393.3-21.3,1.568-29.131,0,0-12.834,1.436-24.549,2.173-.279,6.984-.178,10.4-.178,17.27,0,38.754,16.482,46.392,31.173,46.337,14.691.055,31.173-7.582,31.173-46.337,0-6.872-.128-21.476-.413-23.932" transform="translate(-414.673 -135.255)" fill="#f85464"/><g transform="translate(0 0)"><g clip-path="url(#i)"><g transform="translate(27.536 25.076)" opacity="0.5"><g clip-path="url(#j)"><path d="M501.5,178.482a1.286,1.286,0,1,0,1.286,1.286,1.286,1.286,0,0,0-1.286-1.286" transform="translate(-469.964 -174.357)" fill="#fff"/><path d="M504.288,173.661a1.286,1.286,0,0,0,1.286,1.286,1.271,1.271,0,0,0,.616-.164l.03-2.228a1.273,1.273,0,0,0-.646-.18,1.286,1.286,0,0,0-1.286,1.286" transform="translate(-471.285 -172.375)" fill="#fff"/><path d="M501.5,190.7a1.286,1.286,0,1,0,1.286,1.286A1.286,1.286,0,0,0,501.5,190.7" transform="translate(-469.964 -178.319)" fill="#fff"/><path d="M504.288,185.874a1.285,1.285,0,0,0,1.793,1.182l.031-2.346a1.28,1.28,0,0,0-1.824,1.165" transform="translate(-471.285 -176.338)" fill="#fff"/><path d="M501.5,202.909a1.286,1.286,0,1,0,1.286,1.286,1.286,1.286,0,0,0-1.286-1.286" transform="translate(-469.964 -182.282)" fill="#fff"/><path d="M493.36,190.7a1.286,1.286,0,1,0,1.286,1.286,1.286,1.286,0,0,0-1.286-1.286" transform="translate(-467.322 -178.319)" fill="#fff"/><path d="M496.146,185.874a1.286,1.286,0,1,0,1.286-1.286,1.286,1.286,0,0,0-1.286,1.286" transform="translate(-468.643 -176.338)" fill="#fff"/><path d="M493.36,202.909a1.286,1.286,0,1,0,1.286,1.286,1.286,1.286,0,0,0-1.286-1.286" transform="translate(-467.322 -182.282)" fill="#fff"/><path d="M498.718,198.088a1.286,1.286,0,1,0-1.286,1.286,1.286,1.286,0,0,0,1.286-1.286" transform="translate(-468.643 -180.301)" fill="#fff"/><path d="M496.146,210.3a1.286,1.286,0,1,0,1.286-1.286,1.286,1.286,0,0,0-1.286,1.286" transform="translate(-468.643 -184.263)" fill="#fff"/><path d="M488,198.088a1.286,1.286,0,1,0,1.286-1.286A1.286,1.286,0,0,0,488,198.088" transform="translate(-466.001 -180.301)" fill="#fff"/><path d="M488,210.3a1.286,1.286,0,1,0,1.286-1.286A1.286,1.286,0,0,0,488,210.3" transform="translate(-466.001 -184.263)" fill="#fff"/><path d="M488,222.514a1.286,1.286,0,1,0,1.286-1.286A1.286,1.286,0,0,0,488,222.514" transform="translate(-466.001 -188.226)" fill="#fff"/><path d="M493.36,217.694a1.286,1.286,0,1,0-1.286-1.286,1.286,1.286,0,0,0,1.286,1.286" transform="translate(-467.322 -186.245)" fill="#fff"/><path d="M485.218,202.909A1.286,1.286,0,1,0,486.5,204.2a1.286,1.286,0,0,0-1.286-1.286" transform="translate(-464.68 -182.282)" fill="#fff"/><path d="M482.433,198.088a1.286,1.286,0,1,0-1.286,1.286,1.286,1.286,0,0,0,1.286-1.286" transform="translate(-463.36 -180.301)" fill="#fff"/><path d="M479.861,210.3a1.286,1.286,0,1,0,1.286-1.286,1.286,1.286,0,0,0-1.286,1.286" transform="translate(-463.36 -184.263)" fill="#fff"/><path d="M477.076,227.335a1.286,1.286,0,1,0,1.286,1.286,1.286,1.286,0,0,0-1.286-1.286" transform="translate(-462.039 -190.207)" fill="#fff"/><path d="M479.861,222.514a1.286,1.286,0,1,0,1.286-1.286,1.286,1.286,0,0,0-1.286,1.286" transform="translate(-463.36 -188.226)" fill="#fff"/><path d="M485.218,217.694a1.286,1.286,0,1,0-1.286-1.286,1.286,1.286,0,0,0,1.286,1.286" transform="translate(-464.68 -186.245)" fill="#fff"/><path d="M481.147,233.442a1.286,1.286,0,1,0,1.286,1.286,1.286,1.286,0,0,0-1.286-1.286" transform="translate(-463.36 -192.189)" fill="#fff"/><path d="M485.218,229.908a1.286,1.286,0,1,0-1.286-1.286,1.286,1.286,0,0,0,1.286,1.286" transform="translate(-464.68 -190.208)" fill="#fff"/><path d="M477.076,202.909a1.286,1.286,0,1,0,1.286,1.286,1.286,1.286,0,0,0-1.286-1.286" transform="translate(-462.039 -182.282)" fill="#fff"/><path d="M468.933,215.122a1.286,1.286,0,1,0,1.286,1.286,1.286,1.286,0,0,0-1.286-1.286" transform="translate(-459.397 -186.245)" fill="#fff"/><path d="M473,211.588a1.286,1.286,0,1,0-1.286-1.286A1.286,1.286,0,0,0,473,211.588" transform="translate(-460.718 -184.264)" fill="#fff"/><path d="M468.933,227.335a1.286,1.286,0,1,0,1.286,1.286,1.286,1.286,0,0,0-1.286-1.286" transform="translate(-459.397 -190.207)" fill="#fff"/><path d="M473,221.229a1.286,1.286,0,1,0,1.286,1.286A1.286,1.286,0,0,0,473,221.229" transform="translate(-460.718 -188.226)" fill="#fff"/><path d="M477.076,217.694a1.286,1.286,0,1,0-1.286-1.286,1.286,1.286,0,0,0,1.286,1.286" transform="translate(-462.039 -186.245)" fill="#fff"/><path d="M471.719,234.728a1.286,1.286,0,1,0,1.286-1.286,1.286,1.286,0,0,0-1.286,1.286" transform="translate(-460.718 -192.189)" fill="#fff"/><path d="M464.862,223.8a1.286,1.286,0,1,0-1.286-1.286,1.286,1.286,0,0,0,1.286,1.286" transform="translate(-458.076 -188.226)" fill="#fff"/><path d="M463.577,234.728a1.286,1.286,0,1,0,1.286-1.286,1.286,1.286,0,0,0-1.286,1.286" transform="translate(-458.076 -192.189)" fill="#fff"/><path d="M456.72,236.014a1.286,1.286,0,1,0-1.286-1.286,1.286,1.286,0,0,0,1.286,1.286" transform="translate(-455.434 -192.189)" fill="#fff"/><path d="M460.791,229.908a1.286,1.286,0,1,0-1.286-1.286,1.286,1.286,0,0,0,1.286,1.286" transform="translate(-456.755 -190.208)" fill="#fff"/></g></g><path d="M438.57,140.856l-26.406,23.387-.1-25.559Z" transform="translate(-413.826 -136.367)" fill="#ffa800"/></g></g></g><g transform="translate(1361.841 -41.489)"><path d="M575.342,121.454l1.478,37.784c-12.219-4.4-22.085-23.483-22.687-34.182v49.326c3.4,5.509,21.1,23.827,48.938,23.827v-81.99s-17.271,3.507-27.729,5.235" transform="translate(-527.634 -116.219)" fill="#44bed3"/><path d="M514.907,132.216v70.121h26.5V128.152s-15.248,2.429-26.5,4.064" transform="translate(-514.907 -120.091)" fill="#83cc1d"/><g transform="translate(26.498 0)"><g transform="translate(0)" clip-path="url(#k)"><g transform="translate(19.699 32.736)" opacity="0.5"><g clip-path="url(#l)"><path d="M624,165.964a1.286,1.286,0,1,0,1.286-1.286A1.286,1.286,0,0,0,624,165.964" transform="translate(-596.502 -164.678)" fill="#fff"/><path d="M626.576,178.177a1.286,1.286,0,1,0-1.286,1.286,1.286,1.286,0,0,0,1.286-1.286" transform="translate(-596.502 -168.641)" fill="#fff"/><path d="M621.218,195.212A1.286,1.286,0,1,0,622.5,196.5a1.286,1.286,0,0,0-1.286-1.286" transform="translate(-595.181 -174.585)" fill="#fff"/><path d="M626.576,190.391a1.286,1.286,0,1,0-1.286,1.286,1.286,1.286,0,0,0,1.286-1.286" transform="translate(-596.502 -172.604)" fill="#fff"/><path d="M624,202.6a1.286,1.286,0,1,0,1.286-1.286A1.286,1.286,0,0,0,624,202.6" transform="translate(-596.502 -176.566)" fill="#fff"/><path d="M624,214.817a1.286,1.286,0,1,0,1.286-1.286A1.286,1.286,0,0,0,624,214.817" transform="translate(-596.502 -180.529)" fill="#fff"/><path d="M621.218,231.852a1.286,1.286,0,1,0,1.286,1.286,1.286,1.286,0,0,0-1.286-1.286" transform="translate(-595.181 -186.473)" fill="#fff"/><path d="M624,227.031a1.286,1.286,0,1,0,1.286-1.286A1.286,1.286,0,0,0,624,227.031" transform="translate(-596.502 -184.492)" fill="#fff"/><path d="M615.862,178.177a1.286,1.286,0,1,0,1.286-1.286,1.286,1.286,0,0,0-1.286,1.286" transform="translate(-593.86 -168.641)" fill="#fff"/><path d="M621.218,173.357a1.286,1.286,0,1,0-1.286-1.286,1.286,1.286,0,0,0,1.286,1.286" transform="translate(-595.181 -166.66)" fill="#fff"/><path d="M613.076,195.212a1.286,1.286,0,1,0,1.286,1.286,1.286,1.286,0,0,0-1.286-1.286" transform="translate(-592.539 -174.585)" fill="#fff"/><path d="M618.434,190.391a1.286,1.286,0,1,0-1.286,1.286,1.286,1.286,0,0,0,1.286-1.286" transform="translate(-593.86 -172.604)" fill="#fff"/><path d="M621.218,185.571a1.286,1.286,0,1,0-1.286-1.286,1.286,1.286,0,0,0,1.286,1.286" transform="translate(-595.181 -170.623)" fill="#fff"/><path d="M615.862,202.6a1.286,1.286,0,1,0,1.286-1.286,1.286,1.286,0,0,0-1.286,1.286" transform="translate(-593.86 -176.566)" fill="#fff"/><path d="M613.076,219.638a1.286,1.286,0,1,0,1.286,1.286,1.286,1.286,0,0,0-1.286-1.286" transform="translate(-592.539 -182.51)" fill="#fff"/><path d="M615.862,214.817a1.286,1.286,0,1,0,1.286-1.286,1.286,1.286,0,0,0-1.286,1.286" transform="translate(-593.86 -180.529)" fill="#fff"/><path d="M621.218,210a1.286,1.286,0,1,0-1.286-1.286A1.286,1.286,0,0,0,621.218,210" transform="translate(-595.181 -178.548)" fill="#fff"/><path d="M613.076,231.852a1.286,1.286,0,1,0,1.286,1.286,1.286,1.286,0,0,0-1.286-1.286" transform="translate(-592.539 -186.473)" fill="#fff"/><path d="M617.147,225.745a1.286,1.286,0,1,0,1.286,1.286,1.286,1.286,0,0,0-1.286-1.286" transform="translate(-593.86 -184.492)" fill="#fff"/><path d="M621.218,222.211a1.286,1.286,0,1,0-1.286-1.286,1.286,1.286,0,0,0,1.286,1.286" transform="translate(-595.181 -182.511)" fill="#fff"/><path d="M607.719,190.391a1.286,1.286,0,1,0,1.286-1.286,1.286,1.286,0,0,0-1.286,1.286" transform="translate(-591.218 -172.604)" fill="#fff"/><path d="M613.076,185.571a1.286,1.286,0,1,0-1.286-1.286,1.286,1.286,0,0,0,1.286,1.286" transform="translate(-592.539 -170.623)" fill="#fff"/><path d="M604.934,207.425a1.286,1.286,0,1,0,1.286,1.286,1.286,1.286,0,0,0-1.286-1.286" transform="translate(-589.897 -178.548)" fill="#fff"/><path d="M607.719,202.6a1.286,1.286,0,1,0,1.286-1.286,1.286,1.286,0,0,0-1.286,1.286" transform="translate(-591.218 -176.566)" fill="#fff"/><path d="M604.934,219.638a1.286,1.286,0,1,0,1.286,1.286,1.286,1.286,0,0,0-1.286-1.286" transform="translate(-589.897 -182.51)" fill="#fff"/><path d="M609.005,213.531a1.286,1.286,0,1,0,1.286,1.286,1.286,1.286,0,0,0-1.286-1.286" transform="translate(-591.218 -180.529)" fill="#fff"/><path d="M613.076,210a1.286,1.286,0,1,0-1.286-1.286A1.286,1.286,0,0,0,613.076,210" transform="translate(-592.539 -178.548)" fill="#fff"/><path d="M607.719,227.031a1.286,1.286,0,1,0,1.286-1.286,1.286,1.286,0,0,0-1.286,1.286" transform="translate(-591.218 -184.492)" fill="#fff"/><path d="M604.934,195.212a1.286,1.286,0,1,0,1.286,1.286,1.286,1.286,0,0,0-1.286-1.286" transform="translate(-589.897 -174.585)" fill="#fff"/><path d="M600.863,201.318a1.286,1.286,0,1,0,1.286,1.286,1.286,1.286,0,0,0-1.286-1.286" transform="translate(-588.577 -176.566)" fill="#fff"/><path d="M599.577,214.817a1.286,1.286,0,1,0,1.286-1.286,1.286,1.286,0,0,0-1.286,1.286" transform="translate(-588.577 -180.529)" fill="#fff"/><path d="M599.577,227.031a1.286,1.286,0,1,0,1.286-1.286,1.286,1.286,0,0,0-1.286,1.286" transform="translate(-588.577 -184.492)" fill="#fff"/><path d="M604.934,234.424a1.286,1.286,0,1,0-1.286-1.286,1.286,1.286,0,0,0,1.286,1.286" transform="translate(-589.897 -186.473)" fill="#fff"/><path d="M592.72,216.1a1.286,1.286,0,1,0-1.286-1.286,1.286,1.286,0,0,0,1.286,1.286" transform="translate(-585.935 -180.529)" fill="#fff"/><path d="M596.792,210a1.286,1.286,0,1,0-1.286-1.286A1.286,1.286,0,0,0,596.792,210" transform="translate(-587.256 -178.548)" fill="#fff"/><path d="M591.435,227.031a1.286,1.286,0,1,0,1.286-1.286,1.286,1.286,0,0,0-1.286,1.286" transform="translate(-585.935 -184.492)" fill="#fff"/><path d="M596.792,222.211a1.286,1.286,0,1,0-1.286-1.286,1.286,1.286,0,0,0,1.286,1.286" transform="translate(-587.256 -182.511)" fill="#fff"/><path d="M596.792,234.424a1.286,1.286,0,1,0-1.286-1.286,1.286,1.286,0,0,0,1.286,1.286" transform="translate(-587.256 -186.473)" fill="#fff"/><path d="M584.578,228.317a1.286,1.286,0,1,0-1.286-1.286,1.286,1.286,0,0,0,1.286,1.286" transform="translate(-583.293 -184.492)" fill="#fff"/><path d="M588.649,222.211a1.286,1.286,0,1,0-1.286-1.286,1.286,1.286,0,0,0,1.286,1.286" transform="translate(-584.614 -182.511)" fill="#fff"/></g></g></g></g><g transform="translate(0 8.061)"><g clip-path="url(#m)"><path d="M540.568,127.176,513.9,151.062l-1.575-25.917Z" transform="translate(-514.069 -127.176)" fill="#ffa800"/></g></g></g><g transform="translate(1443.686 -50.723)"><path d="M636.562,109.647l7.993,62.811,9.069-.254,15.968-69.654Z" transform="translate(-636.224 -102.55)" fill="#f85464"/><path d="M661.792,221.044l-4.282,2.8-.226,5.115L652.3,227.5l-3.374,3.935-3.374-3.935-4.984,1.457-.226-5.115-4.282-2.8,4.282-2.8.225-5.115,4.984,1.457,3.374-3.935,3.373,3.935,4.984-1.457.226,5.115Z" transform="translate(-636.062 -137.625)" fill="#ffa800"/><path d="M669.592,102.55l-30.111,30.036-2.919-22.939Z" transform="translate(-636.224 -102.55)" fill="#ffa800"/><g transform="translate(0.338 0)"><g transform="translate(0)" clip-path="url(#n)"><g transform="translate(6.655 34.99)" opacity="0.5"><g clip-path="url(#o)"><path d="M663.983,166.558a1.286,1.286,0,1,0,1.286,1.286,1.286,1.286,0,0,0-1.286-1.286" transform="translate(-651.697 -158.308)" fill="#fff"/><path d="M666.769,161.737a1.286,1.286,0,1,0,1.286-1.286,1.286,1.286,0,0,0-1.286,1.286" transform="translate(-653.018 -156.326)" fill="#fff"/><path d="M672.126,156.917a1.286,1.286,0,1,0-1.286-1.286,1.286,1.286,0,0,0,1.286,1.286" transform="translate(-654.339 -154.345)" fill="#fff"/><path d="M663.983,178.772a1.286,1.286,0,1,0,1.286,1.286,1.286,1.286,0,0,0-1.286-1.286" transform="translate(-651.697 -162.271)" fill="#fff"/><path d="M669.341,173.951a1.286,1.286,0,1,0-1.286,1.286,1.286,1.286,0,0,0,1.286-1.286" transform="translate(-653.018 -160.289)" fill="#fff"/><path d="M663.983,190.985a1.286,1.286,0,1,0,1.286,1.286,1.286,1.286,0,0,0-1.286-1.286" transform="translate(-651.697 -166.233)" fill="#fff"/><path d="M658.627,173.951a1.286,1.286,0,1,0,1.286-1.286,1.286,1.286,0,0,0-1.286,1.286" transform="translate(-650.376 -160.289)" fill="#fff"/><path d="M658.627,186.164a1.286,1.286,0,1,0,1.286-1.286,1.286,1.286,0,0,0-1.286,1.286" transform="translate(-650.376 -164.252)" fill="#fff"/><path d="M658.627,198.377a1.286,1.286,0,1,0,1.286-1.286,1.286,1.286,0,0,0-1.286,1.286" transform="translate(-650.376 -168.214)" fill="#fff"/><path d="M650.484,186.164a1.286,1.286,0,1,0,1.286-1.286,1.286,1.286,0,0,0-1.286,1.286" transform="translate(-647.734 -164.252)" fill="#fff"/><path d="M655.841,181.344a1.286,1.286,0,1,0-1.286-1.286,1.286,1.286,0,0,0,1.286,1.286" transform="translate(-649.055 -162.271)" fill="#fff"/><path d="M650.484,198.377a1.286,1.286,0,1,0,1.286-1.286,1.286,1.286,0,0,0-1.286,1.286" transform="translate(-647.734 -168.214)" fill="#fff"/><path d="M655.841,193.557a1.286,1.286,0,1,0-1.286-1.286,1.286,1.286,0,0,0,1.286,1.286" transform="translate(-649.055 -166.233)" fill="#fff"/><path d="M655.841,205.771a1.286,1.286,0,1,0-1.286-1.286,1.286,1.286,0,0,0,1.286,1.286" transform="translate(-649.055 -170.196)" fill="#fff"/><path d="M647.7,193.557a1.286,1.286,0,1,0-1.286-1.286,1.286,1.286,0,0,0,1.286,1.286" transform="translate(-646.413 -166.233)" fill="#fff"/><path d="M647.7,205.771a1.286,1.286,0,1,0-1.286-1.286,1.286,1.286,0,0,0,1.286,1.286" transform="translate(-646.413 -170.196)" fill="#fff"/></g></g></g></g></g><path d="M207.41,104.456c6.763,2,9.772,1.91,10.144-.089.3-1.6-1.787-2.433-5.48-2.969a48.184,48.184,0,0,0-5.664-.138V86.075c8.211,2.831,15.87,5.105,15.87,5.105v5.475l-10.091-3.147s-.074,3.7,0,2.987c8.734,1.542,11.538,5.066,11.538,9.05,0,3.708-3.4,6.561-11.677,5.317-.854-.128-1.706-.295-2.6-.5-1.2-.322-2.389-.68-3.711-1.13l1.673-4.776m20.36,2.978-3.124-.52V103.8l3.124.594v-3.332l3.6.963v3.053l2.866.544v2.883l-2.866-.478v4.985l-3.6-.37Zm7.342-6.112,3.647.937v4.712a3.483,3.483,0,0,1,2.695-.705,3.387,3.387,0,0,1,3.239,3.22c0,.6,0,4.789,0,4.789l-3.431-.3s.034-2.232,0-4.009c-.031-1.375-1.894-1.354-2.5-.329v4.113l-3.647-.34Z" transform="translate(947.247 -147.928)" fill="#f85464"/><path d="M427.111,98.4l4.252-1v11.338l6.583-.923v4.444l-10.836,1.021Zm12.637,13.73,4.361-.453V94.1l-4.361,1.182ZM455.93,90.509l-2.383,11.573-3.207-9.836L445.5,93.669l6.254,17.133,3.782-.436,6.219-21.776Zm19.161,11.837-7.71,1.408V99.917l5.929-1.236V93.568l-5.928,1.459V91.568l7.2-2.209,0-5.475s-5.927,2.454-11.781,4.35L462.8,109.5l12.295-1.6Z" transform="translate(875.421 -147.217)" fill="#83cc1d"/><path d="M281.454,121.832l-4.581-.392-.753,2.017-3.09-.242,4.478-10.915,3.374.717,4.194,11.017-3-.2Zm-3.759-2.793,2.938.317-1.493-4.573Zm7.561-3.655,3.032.482,0,.921c2.693-1.151,5.9-.515,5.91,2.641,0,.607,0,5.117,0,5.117l-2.93-.145s-.033-2.773-.042-4.33c-.009-1.625-1.388-1.879-2.889-1.069.047,1.922.12,5.25.12,5.25l-2.959-.171Zm10.143,1.083,3.005.359v.807c2.694-1.184,5.713-.675,5.729,2.358,0,.583.01,4.942.01,4.942l-2.943-.1s-.034-2.647-.042-4.141c-.007-1.558-1.254-1.76-2.755-.941.049,1.84,0,4.975,0,4.975l-3.005-.134Zm13.176,1.656-3.054-.166v7.018l3.054.079Zm-1.6-3.66c-1.063-.059-1.92.526-1.915,1.317s.869,1.483,1.932,1.542,1.919-.539,1.916-1.327-.87-1.471-1.933-1.531m5.952,10.674c-1.248-2.391-2.551-4.952-3.522-7.04.965-.147,1.936-.3,2.9-.455.393.966,1.159,2.546,1.995,4.213.711-1.434,1.2-2.474,2.037-4.136q1.51.281,3.021.549c-1.291,2.363-2.295,4.28-3.844,6.9ZM319,121.7a3.556,3.556,0,0,1,3.293-3.62,7.779,7.779,0,0,1,1.169-.08c2.181.02,3.909,1.007,3.929,3.378a6.379,6.379,0,0,1-.064.855c-1.712.082-3.665.119-5.339.158.39.937,2.293,1.4,3.683.24.521.367,1.038.732,1.56,1.1-.762,1.163-2.1,1.638-3.953,1.621-2.546-.022-4.266-1.406-4.278-3.649m5.754-.749a1.424,1.424,0,0,0-1.733-1.034A1.216,1.216,0,0,0,321.871,121c.786,0,1.971-.025,2.879-.051m3.7-3.172,3.02-.2v1.542a4.861,4.861,0,0,1,3.7-.911c.089.769.175,1.539.265,2.309a4.626,4.626,0,0,0-3.961,1.194v3.343l-3.021.059ZM344.3,121.3c0-.283-.154-4.852,5.389-5.584.709-.094,3-.431,3-.431v8.927l-2.768.151c0-.334,0-.382,0-.663a4.669,4.669,0,0,1-2.492.846c-1.744.093-3.126-1.054-3.126-3.247m5.641.16c.011-1,.039-2.109.086-3.405a2.712,2.712,0,0,0-2.989,2.633c-.157,1.606,1.18,1.933,2.9.772m4.019-6.331,3.247-.533V116.6c1.219-1.2,2.609-1.333,4.481-1.3-.059.948-.124,1.924-.192,2.906-2.1-.156-3.386.3-4.289,1.674v4.055l-3.247.188Zm9.689,8.388,1.264-3.245-3.38-6.4,2.985-.529,1.863,3.669,1.515-4.3,3.436-.668-4.548,11.235Zm-20.587-4.382c.31-.841.65-1.894.963-2.741a19.52,19.52,0,0,0-3.334.147c-3.189.321-4.69,1.523-4.684,2.759a2.1,2.1,0,0,0,1.713,2.074c.515.169,1.433.355,2.168.545,1.009.263,1.069.582.894.859-.336.534-2.371.112-4.306-.592q-.219,1.273-.437,2.543c1.007.154,2.221.257,2.884.283,3.628.143,4.615-.917,4.867-1.805.222-.786.32-2.786-2.976-2.947-1.928-.095-2.141-.4-2.022-.9.153-.63,2-.613,4.273-.23" transform="translate(925.413 -156.355)" fill="#44bed3"/><path d="M370.242,38.709l-2.163-2.075,4.38-4.564,2.162,2.075Zm-2.128,2.217-2.162-2.075-7.1,7.394,2.162,2.075Zm3.357-24.334-2.577-1.531L367.3,17.745l2.576,1.531Zm-3.164,5.325-2.577-1.531L360.2,29.695l2.577,1.531Zm-7.1,11.95-2.577-1.531L351.4,44.506l2.577,1.531Zm-6.351-11.721-2.837-.965-3.4,10,2.836.965Zm-4.389,12.912-2.837-.965-1.307,3.843,2.837.965Zm40.157,4.1L389.048,36.6l-2.593,1.6,1.575,2.549Zm-5.207,3.219-1.575-2.549-6.715,4.151,1.575,2.549Zm-9.329,5.766-1.575-2.549L372.064,47.1l1.575,2.549Zm-5.061,3.13-1.575-2.549-7.748,4.79,1.575,2.55Zm32.884-2.489-1.087-2.793-8.016,3.123,1.087,2.792ZM393.012,53l-1.064-2.8-16.757,6.364,1.063,2.8Zm-19.636,7.463-1.049-2.807-4.238,1.585,1.049,2.807ZM240.112,36.635l-4.38-4.564-2.162,2.075,4.38,4.564Zm9.224,9.611-7.1-7.394-2.162,2.075,7.1,7.394Zm-8.446-28.5L239.3,15.062l-2.576,1.531,1.594,2.683Zm7.1,11.95-5.531-9.309-2.576,1.531,5.531,9.309Zm8.8,14.811-7.232-12.17-2.576,1.531,7.232,12.17Zm2.781-13.322-3.4-10-2.837.965,3.4,10Zm2.3,6.753-1.306-3.843-2.838.965,1.307,3.843Zm-40.132.271-2.593-1.6-1.575,2.549,2.593,1.6Zm9.329,5.767-6.715-4.151-1.576,2.549,6.715,4.151Zm5.062,3.129-2.448-1.513L232.1,48.139l2.448,1.514Zm10.361,6.405-7.747-4.79-1.576,2.549,7.747,4.79Zm-33.1-4.4-8.017-3.123L204.28,48.78,212.3,51.9ZM233,56.565,216.243,50.2,215.179,53l16.757,6.365Zm7.1,2.678-4.239-1.585-1.05,2.807,4.239,1.585Z" transform="translate(947.72 -124.887)" fill="#ffa800"/><path d="M280.936,88.575q2.339-.614,4.679-1.246c1.261,2.612,4.287,4.325,8.224,4.611q-.4,1.922-.8,3.843c-6.4-.454-10.443-2.913-12.106-7.209m9.638-5.41a62.17,62.17,0,0,1-7.806-.606q-.011-2.009-.023-4.019c2.459.252,4.494.407,6.394.469-.434-1.329-1.014-3.4-1.216-4.45q2.673.165,5.347.307c.2,1.075.812,2.476,1.347,4.154,2.032-.055,3.64-.142,5.083-.267q.39,2.026.779,4.052c-1.411.128-2.887.221-4.4.281.6,1.625,1.333,3.364,2,4.724q-2.442.5-4.882.983a31.739,31.739,0,0,1-2.624-5.628m10.2,11.267a70.477,70.477,0,0,0,6.173-16.545q2.84.089,5.681.151A82.273,82.273,0,0,1,309.8,88.109c1.9-.882,2.948-1.365,3.832-1.72,1.841,6.1,1.131,6.108,6.435,3.191q1.654,1.891,3.31,3.773c-5.5,3.807-9.981,3.684-12.533-.8-1.113.478-2.195,1.034-3.634,1.762-.323.682-.713,1.388-1.169,2.145q-2.632-1-5.264-2.031m25.433-8.336a34.785,34.785,0,0,1,.7-7.188q2.46,0,4.921-.024a34.938,34.938,0,0,0,.553,15.65q-2.488.542-4.977,1.065a42.09,42.09,0,0,1-1.194-9.5m10.9,10.1c-2.739-.3-4.286-1.672-4.3-3.8-.016-2.8,2.772-4.523,6.343-3.958.024-1.119-.014-2.476-.116-3.805-1.292.054-3.272.061-5.146.03q.04-2.117.078-4.234c1.328.01,3.23-.02,4.583-.073-.16-.982-.288-1.646-.413-2.149q2.458-.313,4.917-.646c.157.715.318,1.589.445,2.491,1.473-.12,3.154-.28,4.072-.445q.3,2.132.6,4.265c-1.121.174-2.868.336-4.25.481a46.36,46.36,0,0,1,.12,4.816,16.091,16.091,0,0,1,4.226,2.183q-1.312,1.6-2.626,3.2c-.678-.326-1.821-1.063-2.714-1.467-.3,1.739-2.535,3.1-5.056,3.149a4.8,4.8,0,0,1-.769-.04m.688-3.127c.738-.014,1.534-.588,1.347-1.117a.9.9,0,0,0-.833-.41c-.86-.01-2.027.569-1.346,1.223a.978.978,0,0,0,.832.3m5.877-17.4q1.382-.146,2.766-.3c.16,1.006.29,2.6.359,3.37q-1.383.152-2.766.3c-.068-.638-.2-1.885-.358-3.372m3.557-.376q1.353-.152,2.7-.309c.1.661.259,2.041.389,3.366q-1.4.173-2.8.341c-.067-.983-.229-2.442-.3-3.4m14.254,18.356c2.77-5.006,3.159-8.334.767-8.54-.345-.032-.819-.032-1.289-.032-1.921,4.847-3.532,9.107-3.717,9.675q-2.189-.531-4.378-1.076c.091-.457.958-2.809,3.065-8.34-1.729.187-2.736.283-3.238.385q-.122-2.1-.245-4.2c1.2-.184,2.954-.339,5.124-.476.558-1.413,1.3-3.37,1.705-4.349q2.282.545,4.565,1.073c-.124.328-.588,1.473-1.208,3.054a29.354,29.354,0,0,1,3.049.08c4.687.436,4.7,7.68.022,14.461q-2.111-.852-4.223-1.719m6.61-14.364q2.162-.944,4.325-1.9a31.546,31.546,0,0,1,3.557,6.571q-2.067.951-4.135,1.887c-.731-1.384-2.447-4.643-3.747-6.555" transform="translate(922.848 -144.191)" fill="#ffa800"/><g transform="translate(1219.351 -97.176)"><path d="M382.864,44.736a1.168,1.168,0,1,1-1.168-1.171,1.169,1.169,0,0,1,1.168,1.171m-3.136-1.246-3.094-4.331a3.874,3.874,0,0,0-2.32,7.209l.064.033,4.992-1.665a2.348,2.348,0,0,1,.357-1.246m.324,2.893L374.8,48.052a3.862,3.862,0,0,0,6.136,4.371l-.039-5.49a2.323,2.323,0,0,1-.843-.551m2.239-3.9,3.184-4.327a3.862,3.862,0,0,0-7.552,0l3.181,4.321a2.318,2.318,0,0,1,1.187,0m1.078,3.879a2.069,2.069,0,0,1-.782.531l-.04,5.528a3.862,3.862,0,0,0,6.137-4.37Zm3.477-7.2-3.143,4.4a2.321,2.321,0,0,1,.326,1.15l5.075,1.693.023-.011.037-.021a3.874,3.874,0,0,0-2.319-7.21" transform="translate(-326.173 -34.216)" fill="#83cc1d"/><path d="M354.525,46.89c-1.046,3.065-3.049,5.661-6.852,5.388a18.585,18.585,0,0,0-6.44.561,13.888,13.888,0,0,1,6.612-1.788,8.024,8.024,0,0,0,6.68-4.161m-1.661-8.275-.036.053a16.836,16.836,0,0,1-1.14,4.084q-.14.32-.293.621a7.327,7.327,0,0,1-4.277,3.88,14.878,14.878,0,0,0-5.208,2.895.08.08,0,0,0,.084.134,16.916,16.916,0,0,1,5.78-1.2c4.447-.161,6.337-4.92,7.141-8.884a32.4,32.4,0,0,0,.5-3.554c-.287.269-.587.53-.9.781a17.143,17.143,0,0,1-1.659,1.186m-3.482,4.352a12.031,12.031,0,0,0,1.377-3.857q.074-.374.133-.749c.04-.254.076-.507.107-.76a30.037,30.037,0,0,0,.2-3.814q-.234.306-.485.6a17.42,17.42,0,0,1-7.843,5.277c-3.052,1.02-4.878,3.453-5.426,7.234a17.7,17.7,0,0,0-.172,2.148,24.38,24.38,0,0,0,.148,3.14l.016.15c.233-.363.481-.721.74-1.063a16.829,16.829,0,0,1,8.336-5.9,5.22,5.22,0,0,0,2.864-2.414" transform="translate(-314.782 -33.787)" fill="#44bed3"/><path d="M322.092,36.931l-8.55.005-8.549.007a1.049,1.049,0,0,0-.882,1.564l4.3,7.927,4.261,7.86a1,1,0,0,0,1.765,0l4.251-7.867,4.288-7.934a1.05,1.05,0,0,0-.884-1.563m-1.853,2.921-6,11.186a.787.787,0,0,1-.089.132.8.8,0,0,1-.624.3.812.812,0,0,1-.726-.448l-4.01-7.983a.823.823,0,0,1,.033-.791.808.808,0,0,1,.69-.388l5.314,0a.8.8,0,0,1,.312.063.813.813,0,0,1-.311,1.563l-4,0,2.719,5.412,4.619-8.611-10.7.007a.823.823,0,0,1-.31-.061.814.814,0,0,1,.309-1.565l12.058-.008a.8.8,0,0,1,.311.063.807.807,0,0,1,.384.332.817.817,0,0,1,.018.8" transform="translate(-303.981 -34.807)" fill="#f85464"/></g></g></svg>